<?xml version="1.0" encoding="utf-8"?>
<!-- Generator: Adobe Illustrator 24.0.3, SVG Export Plug-In . SVG Version: 6.00 Build 0)  -->
<svg version="1.1" id="Слой_1" xmlns="http://www.w3.org/2000/svg" xmlns:xlink="http://www.w3.org/1999/xlink" x="0px" y="0px"
	 viewBox="0 0 651.0625 158.0327" style="enable-background:new 0 0 651.0625 158.0327;" xml:space="preserve">
<style type="text/css">
	.st0{fill:#FF5500;}
</style>
<g>
	<path d="M191.7368,16.5014l31.2817,0.1362c4.0998,0.018,7.4946,0.5602,10.1856,1.6263c2.6893,1.0661,4.8219,2.5117,6.3961,4.3336
		c1.5733,1.8242,2.6758,4.0535,3.3098,6.6924c0.6308,2.6389,0.9424,5.5404,0.9289,8.7036l-0.0877,20.0345
		c-0.0238,5.5081-1.0387,9.6609-3.0418,12.4644c-2.0063,2.8026-4.299,4.6686-6.8786,5.5935
		c1.2855,0.4753,2.6012,1.1268,3.9456,1.9505c1.3422,0.8269,2.5674,1.9748,3.6758,3.4429c1.1057,1.4712,2.0067,3.3206,2.6996,5.5481
		c0.6938,2.2302,1.0328,4.9856,1.0184,8.2643l-0.1232,28.2939c-0.0301,6.9145-1.6969,12.6186-4.9955,17.1132
		c-3.3008,4.4973-8.7009,6.7284-16.1968,6.696l-32.6877-0.1425L191.7368,16.5014z M211.2852,87.7626l-0.1794,41.1234l5.9752,0.0261
		c3.1632,0.0139,5.245-0.7077,6.2486-2.1695c1.0004-1.4595,1.5094-3.6542,1.5225-6.584l0.1039-23.9005
		c0.0117-2.6938-0.4789-4.7747-1.4663-6.245c-0.9906-1.4681-3.0661-2.2104-6.2293-2.2244L211.2852,87.7626z M211.5181,34.3376
		l-0.1479,33.9179l5.9752,0.0261c2.6938,0.0117,4.5126-0.8287,5.459-2.5247c0.9438-1.6929,1.4227-3.8876,1.4348-6.5836
		l0.0719-16.5197c0.0117-2.6938-0.4487-4.7473-1.3795-6.1573c-0.9325-1.4096-2.7446-2.1209-5.4384-2.1326L211.5181,34.3376z"/>
	<path d="M252.0129,16.764l20.2103,0.0881l-0.4514,103.511c-0.0121,2.812,0.4748,5.0715,1.4645,6.7724
		c0.9865,1.7041,2.5948,2.5598,4.8219,2.5692c2.3417,0.0103,4.0148-0.8008,5.0189-2.4384c1.0013-1.6353,1.5108-3.9177,1.5238-6.8475
		l0.451-103.511l20.2103,0.0881l-0.446,102.2808c-0.04,9.2567-2.0351,16.5714-5.9824,21.9419
		c-3.951,5.3736-10.3165,8.0395-19.1038,8.0013l-3.5144-0.0153c-8.7873-0.0382-15.102-2.7019-18.9455-7.9914
		c-3.8435-5.2886-5.7446-12.6784-5.7032-22.1685L252.0129,16.764z"/>
	<path d="M359.7393,17.2334l-0.0769,17.5741l-29.0565,94.0718l30.052,0.1313l-0.0823,18.9801l-50.7888-0.2217l0.0764-17.5741
		l28.7044-94.0732l-26.5367-0.116l0.0827-18.9801L359.7393,17.2334z"/>
	<path d="M413.3388,17.4668l-0.0769,17.5741l-29.0565,94.0722l30.052,0.1308l-0.0823,18.9801l-50.7888-0.2212l0.0764-17.5741
		l28.7044-94.0736l-26.5367-0.1156l0.0827-18.9801L413.3388,17.4668z"/>
	<path d="M473.5246,119.3092c-0.0198,4.5692-0.4496,8.7275-1.2846,12.472c-0.8372,3.7473-2.2572,6.9928-4.2594,9.7351
		c-2.0058,2.7459-4.6205,4.8435-7.8484,6.2927c-3.2302,1.4496-7.245,2.1655-12.0476,2.1448l-3.3394-0.0148
		c-4.8053-0.0207-8.8138-0.7716-12.0287-2.2491c-3.2172-1.4775-5.8439-3.598-7.8803-6.3615
		c-2.0396-2.7603-3.4887-6.0179-4.3512-9.7724c-0.8619-3.7522-1.2833-7.9141-1.2635-12.4833l0.317-72.7563
		c0.0202-4.5692,0.4775-8.6973,1.3718-12.3839c0.8948-3.687,2.3723-6.8439,4.4348-9.4712c2.0602-2.6272,4.705-4.6367,7.9348-6.0287
		c3.2275-1.3916,7.1848-2.0778,11.8722-2.0571l3.339,0.0144c4.8026,0.0211,8.8417,0.7419,12.1168,2.1619
		c3.2725,1.42,5.8997,3.4528,7.8817,6.0975c1.9793,2.6452,3.3709,5.8143,4.1758,9.5085c0.8026,3.6942,1.1965,7.7679,1.1772,12.2193
		L473.5246,119.3092z M453.6362,45.4459c0.0292-6.7-2.2405-10.0629-6.8098-10.0827c-2.5782-0.0112-4.397,0.8044-5.4586,2.4474
		c-1.0616,1.6434-1.6003,4.1672-1.6151,7.575l-0.3287,75.4968c-0.0126,2.8228,0.4739,5.2055,1.4622,7.1483
		c0.9861,1.946,2.8871,2.9235,5.6992,2.9357c2.6938,0.0121,4.4861-0.9496,5.3727-2.8876c0.8871-1.9343,1.3368-4.3134,1.3494-7.1362
		L453.6362,45.4459z"/>
	<path d="M534.8578,119.5763c-0.0198,4.5692-0.4496,8.7275-1.2846,12.4725c-0.8372,3.7473-2.2572,6.9923-4.2599,9.7351
		c-2.0058,2.7455-4.6204,4.843-7.8484,6.2927c-3.2302,1.4496-7.2446,2.1655-12.0471,2.1443l-3.3394-0.0144
		c-4.8053-0.0211-8.8138-0.772-12.0287-2.2495c-3.2171-1.4775-5.8439-3.598-7.8803-6.361
		c-2.0396-2.7603-3.4887-6.0184-4.3516-9.7729c-0.8619-3.7522-1.2833-7.9141-1.2635-12.4833l0.317-72.7563
		c0.0202-4.5692,0.4775-8.6973,1.3718-12.3839c0.8952-3.687,2.3727-6.8435,4.4352-9.4707c2.0602-2.6277,4.705-4.6371,7.9348-6.0292
		c3.2275-1.3916,7.1848-2.0773,11.8722-2.0571l3.339,0.0148c4.8026,0.0207,8.8412,0.7415,12.1164,2.1614
		c3.2725,1.4204,5.8997,3.4528,7.8817,6.098c1.9797,2.6448,3.3713,5.8143,4.1762,9.5085c0.8026,3.6938,1.1965,7.7675,1.1772,12.2189
		L534.8578,119.5763z M514.9694,45.7134c0.0292-6.7001-2.2405-10.0633-6.8098-10.0831c-2.5782-0.0112-4.397,0.8049-5.4586,2.4474
		c-1.0616,1.6434-1.6003,4.1672-1.6151,7.575l-0.3287,75.4968c-0.0126,2.8228,0.4739,5.2059,1.4622,7.1488
		c0.9861,1.9456,2.8871,2.9235,5.6992,2.9357c2.6938,0.0117,4.4861-0.9501,5.3727-2.8876c0.8871-1.9348,1.3368-4.3134,1.3494-7.1362
		L514.9694,45.7134z"/>
	<path d="M562.7164,18.1178l-0.482,110.5407l24.2516,0.1057l-0.0877,20.2103l-44.1104-0.192l0.5697-130.751L562.7164,18.1178z"/>
	<path d="M622.8833,124.5295l-14.5862-0.0639l-2.5674,24.5934l-17.7499-0.0773l16.5624-130.6813l23.5488,0.1025l16.4774,130.8251
		l-19.1559-0.0836L622.8833,124.5295z M610.4908,104.968l10.3687,0.045l-5.062-48.3513L610.4908,104.968z"/>
</g>
<polygon points="191.1671,141.8206 211.0837,141.8206 211.3913,46.6043 191.6289,35.9 "/>
<path class="st0" d="M103.7099,145.9389c5.1737-4.8347,1.6619-17.2308,10.7366-18.2179c8.595-0.935,9.6019,10.4228,8.2532,16.4681
	c-0.222,0.9952-0.8294,3.2262-2.344,2.2143c-0.809-0.5405-0.1156-3.7338-0.0981-4.4795c0.0644-2.7458,0.2239-8.9458-3.321-9.7721
	c-3.9107-0.9116-4.7869,4.0798-5.1851,6.6975c-0.6208,4.0809-2.0835,8.073-4.7296,11.307
	c-5.0037,6.1156-14.0938,5.2784-18.0318-1.718c-4.0115-7.1269,0.6777-16.5611,5.5529-21.9988
	c2.4062-2.6837,5.5558-4.5314,8.0477-7.1484c2.6914-2.8264,5.197-6.1119,7.0496-9.5581c3.9633-7.3726,6.0568-17.657,1.461-25.2598
	c-8.7516-14.4777-32.3071-6.6803-41.8725,2.6343c-1.9276,1.877-4.5093,4.4193-4.2724,7.3661
	c0.408,5.0742,5.6275,3.0691,8.4428,1.5446c7.2269-3.9135,14.3327-10.7905,23.0613-10.6622
	c7.6181,0.112,13.1754,6.4789,11.1769,14.0775c-1.757,6.6802-8.2286,11.5964-13.652,15.3401
	c-6.8396,4.7213-14.1901,8.7795-21.6205,12.4884c-4.5324,2.2623-14.3855,4.7385-16.0676,10.3168
	c-1.1998,3.9789,1.7395,6.8759,5.612,5.8249c4.1814-1.1348,7.1381-4.864,11.4054-5.664c1.4113-0.2646,8.6931,0.6043,5.1505,2.7692
	c-0.7943,0.4854-2.3939-0.1772-3.2826-0.1476c-1.1323,0.0377-2.1253,0.3663-3.1684,0.7959
	c-2.1231,0.8746-3.9363,2.354-5.9209,3.4802c-3.1918,1.8113-7.7029,3.6186-11.2765,1.8257
	c-3.3462-1.6788-4.7476-6.4047-3.5777-9.8339c2.5027-7.3357,13.3006-11.1031,19.4703-14.466
	c7.727-4.2118,15.5568-8.6342,22.4036-14.2023c2.686-2.1844,5.6907-4.7464,7.1579-7.9653c1.5232-3.3418,0.4258-7.2531-3.7318-6.9873
	c-7.6287,0.4877-13.6756,8.8069-19.8077,12.534c-7.7226,4.6938-16.8555,5.6614-22.9757-2.1073
	c-5.4484-6.916-2.7944-15.2339,1.675-21.8128c0.2606-0.3836,2.101-2.4161,1.5121-3.0355c-0.5019-0.5278-3.5577,1.8313-3.8211,2.0196
	c-3.1548,2.2554-6.1014,5.3813-7.4643,9.077c-5.1402,13.9377,17.1984,33.29,0.0333,44.0524
	c-6.2492,3.9182-15.655,4.0715-19.7418-2.885c-4.581-7.7977,0.5326-15.9409,1.9994-23.8065
	c0.6351-3.4059-1.3009-8.2161-5.5561-6.4912c-0.9903,0.4014-2.5038,2.4162-3.5919,1.7671
	c-1.6933-1.0101,0.8781-3.0106,1.6846-3.5861c2.8496-2.0333,6.3834-2.0986,8.6061,0.931c2.5685,3.5009,1.8971,8.8877,1.4199,12.9076
	c-0.8208,6.9144-4.1826,18.194,6.5902,18.3713c9.1106,0.1499,9.5831-8.8603,6.8336-15.2424
	c-3.1659-7.3484-8.6721-13.6934-9.557-21.891c-0.8932-8.2746,3.5308-14.8168,9.2897-20.2288
	c0.6386-0.6002,3.5197-2.6454,2.4178-3.4202c-0.9445-0.6641-3.7789,0.7955-4.5888,1.2189
	c-3.8793,2.0278-7.0085,5.6667-10.6302,8.1512c-6.1419,4.2133-16.2183,8.8772-22.4849,2.2281
	c-5.5324-5.8701-3.1138-15.6158,4.3651-18.0489c3.5044-1.1401,7.2534-1.5297,10.8702-2.1547
	c2.3904-0.4131,9.4027-1.2901,9.7236-4.7028c0.3129-3.3281-4.2426-2.4806-5.7155-3.7508c-1.2579-1.0848-0.6845-2.0936,0.5362-2.497
	c1.8603-0.6148,4.2148,0.6257,5.3286,1.4405c8.3721,6.1242-2.8628,11.3606-7.8566,12.788
	c-3.3924,0.9697-20.4241,3.0551-14.0056,10.4505c5.5828,6.4324,15.39-1.667,19.3844-6.0642
	c2.1175-2.331,4.0456-4.8291,6.6887-6.6085c4.248-2.8599,10.9919-3.0609,10.9074-3.9013c-0.1453-1.4437-3.7689-1.2124-6.0337-2.929
	c-2.1185-1.6057-3.4097-2.9018-4.9668-5.0699c-3.3513-4.6662-3.5351-10.3857-1.3039-15.5968
	c3.5994-8.4066,11.1125-14.6472,18.7015-19.317c1.8745-1.1534,10.3698-4.8093,6.1381-7.8869
	c-3.4834-2.5334-10.8963,1.4823-14.5203,2.4688c-2.2243,0.6054-4.7135,1.3853-6.9419,0.3533
	c-0.8685-0.4022-5.2309-4.2453-3.2677-5.3144c1.0281-0.5599,3.5707,2.1238,4.4843,2.4305c2.5226,0.8469,5.5632-0.7786,7.9197-1.5595
	c4.9279-1.6332,11.7042-4.5961,16.4877-1.0802c4.2291,3.1084,2.1105,7.6104-1.0595,10.5009
	c-3.6303,3.3102-8.2307,5.4373-11.9376,8.695c-3.4269,3.0117-6.7682,6.3116-9.085,10.2904
	c-2.7952,4.8006-1.1968,10.1537,3.608,12.9992c1.8933,1.1213,4.0861,1.6741,6.226,2.082c3.1739,0.605,4.1839,1.0855,4.1936-2.1762
	c0.0168-5.6555,0.5371-11.475,2.877-16.7006c2.3921-5.3424,7.2248-9.2004,12.1383-12.1508
	c19.3583-11.6237,52.0929-5.8133,54.3925,20.4537c0.1365,1.5595-0.529,6.6543,0.8529,7.1796
	c1.7694,0.6725,7.2008-2.0398,8.7619-2.7554c4.132-1.894,9.5389-5.9074,6.934-11.0986c-2.5218-5.0255-10.3066-4.677-14.8502-6.4533
	c-4.5307-1.7712-7.6624-6.8854-4.661-11.5118c1.1775-1.815,3.1578-2.5535,5.2232-2.8359c1.675-0.229,7.327-0.5438,8.3936,1.1287
	c1.7198,2.6968-3.18,1.6369-4.292,1.5506c-1.9501-0.1515-5.7298-0.5524-6.9417,1.4614c-3.537,5.8773,8.3004,6.9235,10.9294,7.3539
	c4.8015,0.7861,11.5136,2.2737,14.191,6.8573c2.9913,5.1211,0.9379,11.6977-2.6767,15.8472
	c-3.9603,4.5463-8.8867,6.6009-13.9937,9.3861c-2.6243,1.4312-0.7397,1.2621,1.3901,2.0242
	c2.7641,0.9892,5.1428,2.7966,7.3243,4.7193c4.2813,3.7735,7.1805,9.0666,11.7527,12.4751
	c3.3972,2.5326,11.2713,3.7202,9.8873-3.0686c-1.1501-5.6408-8.1357-5.8306-11.0268-10.0059
	c-3.6718-5.3028,1.661-8.8021,5.9591-10.7936c1.4339-0.6644,5.8441-3.8628,7.3279-2.9821c1.8042,1.0708-2.8755,2.8112-3.6965,3.2015
	c-2.2094,1.0503-4.6815,2.1102-6.4339,3.8677c-2.5953,2.6027-0.5748,4.8623,1.8728,6.5758
	c3.8349,2.6847,10.4702,4.4291,12.3871,9.1239c2.1955,5.377-1.7162,11.3568-7.3352,11.8333
	c-5.5785,0.4731-11.1739-2.2261-15.6149-5.3628c-1.4533-1.0265-10.6045-9.3896-12.6279-7.6097
	c0.0392,1.2323,3.0765,3.408,3.8489,4.3888c1.5354,1.9496,2.7856,4.1117,3.5916,6.4643c1.7221,5.027,0.9152,9.8046-0.8943,14.6583
	c-2.4114,6.4682-13.5894,22.2705-4.0858,27.4842c3.7068,2.0336,7.1937-0.4543,7.8596-4.2774
	c0.8791-5.0471-2.6826-10.2472-0.8112-15.2998c0.4857-1.3112,2.2769-3.6559,3.8169-3.7738
	c2.7218-0.2084,0.3188,1.8913-0.5439,3.1299c-3.5128,5.0434,0.9998,8.8638,2.5497,13.7501
	c1.3251,4.1778,1.1208,9.0303-2.8183,11.6712c-3.7257,2.4978-9.9658,2.8215-14.1011,1.396
	c-11.0025-3.7927-5.5325-18.3286-2.7466-25.7838c1.6003-4.2824,3.3879-9.3804,2.5518-14.021
	c-0.4216-2.3404-1.5113-4.1793-3.0711-5.9385c-1.0915-1.2311-4.4058-5.1348-6.4192-4.2936
	c-0.9363,0.3912,2.277,10.5574,2.4311,12.4435c0.4432,5.4247-0.8506,10.5347-3.3719,15.3109
	c-5.0202,9.5097-12.7807,16.2307-20.9824,22.8732c-3.8861,3.1473-7.7356,7.5792-7.5346,12.947
	c0.0799,2.1351,0.8572,4.0081,2.9167,4.8461C99.4427,147.9225,102.8914,147.8116,103.7099,145.9389z"/>
</svg>
