<?xml version="1.0" encoding="UTF-8" standalone="no"?>
<!-- Created with Inkscape (http://www.inkscape.org/) -->

<svg
   xmlns:dc="http://purl.org/dc/elements/1.1/"
   xmlns:cc="http://creativecommons.org/ns#"
   xmlns:rdf="http://www.w3.org/1999/02/22-rdf-syntax-ns#"
   xmlns:svg="http://www.w3.org/2000/svg"
   xmlns="http://www.w3.org/2000/svg"
   xmlns:sodipodi="http://sodipodi.sourceforge.net/DTD/sodipodi-0.dtd"
   xmlns:inkscape="http://www.inkscape.org/namespaces/inkscape"
   version="1.1"
   id="svg6968"
   xml:space="preserve"
   width="338.267"
   height="90.238167"
   viewBox="0 0 270.6136 72.190533"
   sodipodi:docname="republer.svg"
   inkscape:version="0.92.3 (2405546, 2018-03-11)"><metadata
     id="metadata6974"><rdf:RDF><cc:Work
         rdf:about=""><dc:format>image/svg+xml</dc:format><dc:type
           rdf:resource="http://purl.org/dc/dcmitype/StillImage" /><dc:title></dc:title></cc:Work></rdf:RDF></metadata><defs
     id="defs6972"><clipPath
       clipPathUnits="userSpaceOnUse"
       id="clipPath6984"><path
         d="M 0,841.889 H 595.276 V 0 H 0 Z"
         id="path6982"
         inkscape:connector-curvature="0" /></clipPath></defs><sodipodi:namedview
     pagecolor="#ffffff"
     bordercolor="#666666"
     borderopacity="1"
     objecttolerance="10"
     gridtolerance="10"
     guidetolerance="10"
     inkscape:pageopacity="0"
     inkscape:pageshadow="2"
     inkscape:window-width="1109"
     inkscape:window-height="563"
     id="namedview6970"
     showgrid="false"
     scale-x="0.8"
     fit-margin-top="0"
     fit-margin-left="0"
     fit-margin-right="0"
     fit-margin-bottom="0"
     inkscape:zoom="1.1893055"
     inkscape:cx="96.175634"
     inkscape:cy="73.521974"
     inkscape:window-x="905"
     inkscape:window-y="565"
     inkscape:window-maximized="0"
     inkscape:current-layer="g6976" /><g
     id="g6976"
     inkscape:groupmode="layer"
     inkscape:label="republer_logo_yellow"
     transform="matrix(1.3333333,0,0,-1.3333333,-261.54373,810.69851)"><g
       id="g6978"><g
         id="g6980"
         clip-path="url(#clipPath6984)"><g
           id="g6986"
           transform="translate(261.1455,608.0234)"><path
             d="M 0,0 V -0.021 C -0.19,0 -0.371,0 -0.561,0 Z"
             style="fill:#232328;fill-opacity:1;fill-rule:nonzero;stroke:none"
             id="path6988"
             inkscape:connector-curvature="0" /></g><path
           d="M 398.361,553.881 H 196.158 v 18.384 h 202.203 z"
           style="fill:#fff450;fill-opacity:1;fill-rule:nonzero;stroke:none"
           id="path6990"
           inkscape:connector-curvature="0" /><g
           id="g6992"
           transform="translate(232.4385,600.9434)"><path
             d="m 0,0 v -4.82 h 10.77 v -7.09 H 0 v -5.1 H 10.77 V -24.1 H -7.94 V 7.08 H 10.77 V 0 Z"
             style="fill:#232328;fill-opacity:1;fill-rule:nonzero;stroke:none"
             id="path6994"
             inkscape:connector-curvature="0" /></g><g
           id="g6996"
           transform="translate(349.7881,583.9336)"><path
             d="m 0,0 v -7.09 h -18.711 v 31.18 h 7.941 V 0 Z"
             style="fill:#232328;fill-opacity:1;fill-rule:nonzero;stroke:none"
             id="path6998"
             inkscape:connector-curvature="0" /></g><g
           id="g7000"
           transform="translate(359.9971,600.9434)"><path
             d="m 0,0 v -4.82 h 10.771 v -7.09 H 0 v -5.1 H 10.771 V -24.1 H -7.939 V 7.08 h 18.71 V 0 Z"
             style="fill:#232328;fill-opacity:1;fill-rule:nonzero;stroke:none"
             id="path7002"
             inkscape:connector-curvature="0" /></g><g
           id="g7004"
           transform="translate(318.458,583.9336)"><path
             d="M 0,0 C -0.09,-0.011 -0.18,-0.011 -0.27,-0.011 H -7.221 V 0 Z"
             style="fill:#232328;fill-opacity:1;fill-rule:nonzero;stroke:none"
             id="path7006"
             inkscape:connector-curvature="0" /></g><g
           id="g7008"
           transform="translate(209.7578,593.0029)"><path
             d="M 0,0 H -5.67 V 7.931 H 0 C 2.19,7.931 3.97,6.16 3.97,3.96 3.97,1.771 2.19,0 0,0 m 11.91,3.971 c 0,6.099 -4.95,11.05 -11.059,11.05 H -13.6 v -31.18 h 7.93 v 9.069 h 6.261 l 2.43,-9.069 H 10.95 L 7.851,-4.59 c 2.479,2.021 4.059,5.101 4.059,8.561"
             style="fill:#232328;fill-opacity:1;fill-rule:nonzero;stroke:none"
             id="path7010"
             inkscape:connector-curvature="0" /></g><g
           id="g7012"
           transform="translate(387.208,593.0029)"><path
             d="M 0,0 H -5.67 V 7.931 H 0 C 2.189,7.931 3.971,6.16 3.971,3.96 3.971,1.771 2.189,0 0,0 m 11.91,3.971 c 0,6.099 -4.949,11.05 -11.06,11.05 H -13.6 v -31.18 h 7.93 v 9.069 h 6.26 l 2.43,-9.069 h 7.929 L 7.85,-4.59 c 2.48,2.03 4.06,5.111 4.06,8.561"
             style="fill:#232328;fill-opacity:1;fill-rule:nonzero;stroke:none"
             id="path7014"
             inkscape:connector-curvature="0" /></g><g
           id="g7016"
           transform="translate(299.6123,608.0234)"><path
             d="m 0,0 v -20.406 c 0.006,-7.371 -5.096,-11.623 -12.469,-11.623 -7.367,0 -12.47,4.252 -12.47,11.623 V 0 h 7.929 l 0.004,-20.126 c 0.004,-3.116 2.272,-4.816 4.537,-4.813 2.27,0.002 4.537,1.697 4.533,4.813 L -7.939,0 Z"
             style="fill:#232328;fill-opacity:1;fill-rule:nonzero;stroke:none"
             id="path7018"
             inkscape:connector-curvature="0" /></g><path
           d="m 260.498,591.863 h -5.67 v 0.01 h 5.67 z"
           style="fill:#232328;fill-opacity:1;fill-rule:nonzero;stroke:none"
           id="path7020"
           inkscape:connector-curvature="0" /><g
           id="g7022"
           transform="translate(261.3486,584.8037)"><path
             d="m 0,0 v -0.021 h -0.561 c 0.19,0 0.371,0 0.561,0.021"
             style="fill:#232328;fill-opacity:1;fill-rule:nonzero;stroke:none"
             id="path7024"
             inkscape:connector-curvature="0" /></g><g
           id="g7026"
           transform="translate(260.498,591.9033)"><path
             d="M 0,0 V -0.04 H -5.67 V 9.03 H 0 V 8.99 C 2.239,8.72 3.97,6.81 3.97,4.5 3.97,2.18 2.239,0.27 0,0 M 0.851,16.1 C 0.66,16.12 0.479,16.12 0.29,16.12 h -13.891 v -31.18 h 7.931 v 7.94 h 5.96 c 0.189,0 0.37,0 0.561,0.02 C 7,-6.82 11.91,-1.73 11.91,4.5 11.91,10.729 7,15.82 0.851,16.1"
             style="fill:#232328;fill-opacity:1;fill-rule:nonzero;stroke:none"
             id="path7028"
             inkscape:connector-curvature="0" /></g><g
           id="g7030"
           transform="translate(318.458,583.9336)"><path
             d="M 0,0 C -0.09,-0.011 -0.18,-0.011 -0.27,-0.011 H -7.221 V 5.38 h 5.67 1.281 C 1.211,5.38 2.42,4.17 2.42,2.689 2.42,1.29 1.359,0.14 0,0 m -7.221,17 h 5.67 C -0.141,17 1,15.859 1,14.449 1,13.04 -0.141,11.899 -1.551,11.899 h -5.67 z M 7.27,9.41 c 1.05,1.51 1.669,3.35 1.669,5.329 0,5.16 -4.189,9.351 -9.359,9.351 H -15.15 V -7.09 H 1 c 5.18,0.079 9.359,4.3 9.359,9.5 0,2.77 -1.189,5.26 -3.089,7"
             style="fill:#232328;fill-opacity:1;fill-rule:nonzero;stroke:none"
             id="path7032"
             inkscape:connector-curvature="0" /></g></g></g></g></svg>